<svg width="68" height="84" viewBox="0 0 68 84" fill="none" xmlns="http://www.w3.org/2000/svg">
<path d="M17.856 30.976C18.963 30.976 19.9737 31.1329 20.9002 31.4225C21.8267 31.7121 22.6449 32.1586 23.3308 32.7257C24.0166 33.3049 24.5581 34.0048 24.9431 34.8375C25.3281 35.6701 25.5207 36.6475 25.5207 37.7456C25.5207 38.6144 25.3883 39.4591 25.1356 40.2797C24.8829 41.1002 24.4618 41.8484 23.8843 42.5241C23.2947 43.1999 22.5366 43.7308 21.6101 44.1411C20.6716 44.5514 19.5285 44.7565 18.1689 44.7444L14.9562 44.7324L14.9201 52.7449L12.0083 52.7328L12.0925 30.9398L17.856 30.976ZM18.1087 41.9449C18.975 41.9449 19.685 41.8242 20.2625 41.5588C20.8401 41.3054 21.2853 40.9675 21.5981 40.5572C21.923 40.1469 22.1516 39.7004 22.296 39.2178C22.4404 38.7351 22.5126 38.2886 22.5126 37.8663C22.5126 37.4198 22.4404 36.9612 22.296 36.4906C22.1516 36.02 21.9109 35.5856 21.574 35.1753C21.2492 34.7771 20.816 34.4392 20.2866 34.1738C19.7571 33.9083 19.1074 33.7756 18.3494 33.7756L14.9803 33.7635L14.9442 41.9328L18.1087 41.9449ZM21.6823 43.6222L27.3255 52.8052L23.9564 52.7931L18.217 43.6946L21.6823 43.6222Z" fill="#182670"/>
<path d="M36.5186 31.0604H39.8876L45.7835 47.7008L45.2781 47.4957L49.5737 36.3458L50.9213 40.2917L45.1819 53.7343L36.5186 31.0604ZM46.9506 31.0604H49.8625L56.2396 47.4595L55.638 47.3388L61.2571 31.0604H64.3494L55.8185 53.6981L46.9506 31.0604Z" fill="#182670"/>
<path d="M33.2095 21.1655V63.7258" stroke="#182670" stroke-width="0.718377" stroke-miterlimit="10"/>
<path d="M8.57667 13.4514L10.1835 15.688L9.60922 16.1013L5.64331 10.5833L7.54131 9.20758C8.18295 8.74204 8.776 8.56225 9.3131 8.63079C9.86214 8.70085 10.3017 8.96373 10.6317 9.41945C10.9497 9.87364 11.0738 10.3274 10.9873 10.8151C10.9008 11.3028 10.6533 11.7214 10.2552 12.0842L13.6326 13.1842L12.9251 13.69L9.6984 12.6457L8.57667 13.4514ZM8.19462 12.9282L9.47638 12.0091C9.943 11.6794 10.2082 11.3118 10.2825 10.9198C10.3568 10.5279 10.2802 10.1775 10.0647 9.87019C9.62173 9.25408 8.86701 9.08479 7.90379 9.78908L6.60857 10.7186L8.19462 12.9282Z" fill="#182670"/>
<path d="M19.0387 3.80152L15.7825 5.17424L16.6941 7.34642L19.6694 6.08382L19.9318 6.68905L16.9565 7.95165L17.9155 10.2272L21.1986 8.83358L21.461 9.43881L17.5234 11.1139L14.8775 4.85196L18.7898 3.18584L19.0387 3.80152Z" fill="#182670"/>
<path d="M24.9539 1.2718L27.4558 6.7611L27.4677 6.76262L28.494 0.81117L29.2958 0.706678L31.8423 6.22601L31.8542 6.22753L32.8732 0.238643L33.5884 0.14743L32.3649 7.16856L31.5751 7.27458L29.0108 1.70432L27.9634 7.72607L27.1855 7.83361L24.2014 1.37042L24.9539 1.2718Z" fill="#182670"/>
<path d="M38.2582 7.17858L37.5436 7.07523L41.4067 0.755874L42.2049 0.869887L44.1302 8.02519L43.3798 7.91727L42.8971 6.09177L39.2405 5.56435L38.2582 7.17858ZM42.7185 5.39992L41.682 1.54522L39.5975 4.95301L42.7185 5.39992Z" fill="#182670"/>
<path d="M49.723 6.87762L48.717 9.43768L48.0596 9.17132L50.5526 2.84744L52.7351 3.70985C53.4746 3.99885 53.9465 4.38752 54.1854 4.89243C54.4257 5.38536 54.4436 5.91073 54.2316 6.4311C54.0316 6.95299 53.7082 7.301 53.248 7.48557C52.7877 7.67014 52.3116 7.69453 51.7821 7.56614L52.6765 11.0134L51.8685 10.6914L51.0154 7.39533L49.723 6.87762ZM49.9695 6.27651L51.4364 6.85297C51.9671 7.06667 52.4253 7.08863 52.7824 6.95173C53.1529 6.80438 53.4029 6.55648 53.5458 6.1976C53.8299 5.4918 53.547 4.7623 52.4497 4.33034L50.9724 3.74038L49.9695 6.27651Z" fill="#182670"/>
<path d="M60.4435 7.56431L62.0893 8.73534C62.9457 9.34338 63.4554 10.1018 63.6288 11.0241C63.8038 11.9345 63.6103 12.7857 63.0602 13.5792C62.4832 14.3936 61.7326 14.8574 60.8054 14.9945C59.8797 15.1197 58.9998 14.8858 58.1761 14.3063L56.5303 13.1352L60.4435 7.56431ZM57.4829 12.9892L58.5285 13.7308C59.2301 14.2218 59.9324 14.4209 60.6626 14.3073C61.3928 14.1936 61.9864 13.8193 62.4465 13.1603C62.9051 12.5132 63.0653 11.8281 62.9391 11.1064C62.8128 10.3848 62.3937 9.77171 61.6818 9.26726L60.6481 8.52712L57.4829 12.9892Z" fill="#182670"/>
<path d="M4.6084 60.4556L1.05885 65.3307L1.07088 65.3428L6.75016 63.3276L7.23146 63.9792L3.68191 68.9025L3.69394 68.9146L9.39728 66.8753L9.83045 67.4545L3.11638 69.8196L2.63509 69.1801L6.2087 64.2326L0.469263 66.2599L0 65.6324L4.1632 59.8523L4.6084 60.4556Z" fill="#182670"/>
<path d="M8.50658 75.0929L7.91699 74.6705L14.234 70.8212L14.8958 71.2918L13.3556 78.532L12.742 78.0976L13.1511 76.2513L10.1309 74.1034L8.50658 75.0929ZM13.2834 75.5635L14.1257 71.6538L10.7205 73.7293L13.2834 75.5635Z" fill="#182670"/>
<path d="M21.261 75.5032L19.1433 74.6706L19.3839 74.0431L24.2691 75.9617L24.0284 76.5892L21.9227 75.7687L19.6968 81.4764L19.0229 81.2109L21.261 75.5032Z" fill="#182670"/>
<path d="M27.4696 82.7312C26.892 82.0072 26.6755 81.1505 26.7837 80.1489C26.892 79.1353 27.3132 78.3509 28.0592 77.7717C28.7931 77.1925 29.6354 76.9511 30.5739 77.0597C31.344 77.1442 31.9697 77.4338 32.451 77.8924C32.9323 78.363 33.2331 78.8819 33.3414 79.4731L32.6676 79.6904C32.5593 79.1956 32.3307 78.7612 31.9697 78.3992C31.6208 78.0251 31.1274 77.8079 30.4777 77.7355C29.7437 77.651 29.094 77.8441 28.5164 78.3027C27.9509 78.7612 27.614 79.3887 27.5298 80.1972C27.4335 81.0057 27.614 81.7055 28.0471 82.2848C28.4923 82.864 29.0819 83.2018 29.852 83.2984C31.0432 83.4311 31.9216 82.876 32.4269 81.8624L33.0285 82.2365C32.7638 82.7916 32.3427 83.238 31.7651 83.588C31.1996 83.9379 30.5138 84.0586 29.7557 83.9741C28.8052 83.8535 28.0471 83.4432 27.4696 82.7312Z" fill="#182670"/>
<path d="M39.3819 83.8415L38.6841 83.9622L37.5049 77.265L38.2028 77.1443L38.7201 80.1007L42.5224 79.425L42.005 76.4686L42.7029 76.3479L43.882 83.0451L43.1842 83.1657L42.6427 80.1007L38.8405 80.7765L39.3819 83.8415Z" fill="#182670"/>
<path d="M51.1616 73.6207L47.9731 75.1532L48.9838 77.277L51.8956 75.8772L52.1844 76.4685L49.2725 77.8682L50.3314 80.0886L53.5561 78.544L53.8449 79.1353L49.9825 80.9815L47.0586 74.8394L50.8849 73.0052L51.1616 73.6207Z" fill="#182670"/>
<path d="M57.5867 73.3191L59.3675 75.4187L58.8261 75.8773L54.4463 70.6885L56.2391 69.168C56.8407 68.6612 57.4183 68.4199 57.9597 68.444C58.5132 68.4682 58.9705 68.6974 59.3314 69.1318C59.6924 69.5542 59.8488 70.0007 59.7887 70.4954C59.7405 70.9902 59.524 71.4246 59.163 71.8228L62.6163 72.6554L61.9545 73.2225L58.6576 72.4141L57.5867 73.3191ZM57.1776 72.8243L58.3809 71.7986C58.814 71.4246 59.0547 71.0384 59.1028 70.6523C59.1509 70.2661 59.0427 69.9162 58.802 69.6266C58.3087 69.0474 57.5386 68.9388 56.6362 69.7111L55.4209 70.7488L57.1776 72.8243Z" fill="#182670"/>
<path d="M64.8065 67.8407L64.9028 67.1529C65.7932 67.358 66.467 67.2132 66.9724 66.4892C67.213 66.1513 67.3213 65.8014 67.2972 65.4515C67.2852 65.0894 67.1288 64.8119 66.8521 64.6068C66.2865 64.2086 65.6488 64.4137 64.8426 65.1136C63.7597 66.0548 62.9054 66.2237 62.1354 65.6807C61.6781 65.3549 61.4375 64.9326 61.4014 64.3896C61.3653 63.8465 61.5097 63.3397 61.8586 62.857C62.4843 61.9762 63.3627 61.6866 64.2531 61.9279L64.1809 62.6157C63.4349 62.4347 62.8332 62.6519 62.4001 63.2553C62.1835 63.569 62.0752 63.8948 62.0872 64.2448C62.0993 64.5947 62.2437 64.8722 62.5204 65.0653C63.0258 65.4273 63.5311 65.2704 64.3493 64.5826C64.975 64.0517 65.5405 63.75 66.0339 63.6897C66.4911 63.6293 66.8881 63.7259 67.2371 63.9672C67.6582 64.2689 67.9109 64.6912 67.9831 65.2342C68.0553 65.7773 67.8989 66.3082 67.5138 66.8512C66.84 67.8286 65.9376 68.1424 64.8065 67.8407Z" fill="#182670"/>
</svg>
